<svg xmlns="http://www.w3.org/2000/svg" id="Eye" width="28" height="24.959" viewBox="0 0 28 24.959">
    <path id="Icon_ionic-md-eye-off" fill="#0b5cb8" d="M16.253 9.752a6.476 6.476 0 0 1 6.367 6.571 6.543 6.543 0 0 1-.456 2.4l3.718 3.835a15.524 15.524 0 0 0 4.368-6.24 15.087 15.087 0 0 0-14.009-9.849 14.575 14.575 0 0 0-5.068.916l2.749 2.84a6.084 6.084 0 0 1 2.331-.473zM3.525 6.17l2.906 3 .587.6a15.418 15.418 0 0 0-4.768 6.553 15.072 15.072 0 0 0 14 9.854 14.587 14.587 0 0 0 5.574-1.1l.537.552 3.73 3.835 1.618-1.67L5.137 4.5zm7.036 7.26l1.975 2.034a3.912 3.912 0 0 0 3.718 4.79 3.459 3.459 0 0 0 .825-.1l1.975 2.034a6.111 6.111 0 0 1-2.8.7 6.476 6.476 0 0 1-6.368-6.578 6.7 6.7 0 0 1 .675-2.879zm5.486-1.02l4.012 4.14.025-.208a3.876 3.876 0 0 0-3.818-3.942z" data-name="Icon ionic-md-eye-off" transform="translate(-2.25 -4.5)"/>
</svg>
