<svg id="Icon_ionic-md-eye" data-name="Icon ionic-md-eye" xmlns="http://www.w3.org/2000/svg" width="28" height="20" viewBox="0 0 28 20">
  <path id="Icon_ionic-md-eye-2" data-name="Icon ionic-md-eye" d="M16.25,7.383a15.089,15.089,0,0,0-14,10,15.089,15.089,0,0,0,14,10,15.089,15.089,0,0,0,14-10A15.089,15.089,0,0,0,16.25,7.383Zm0,16.669a6.539,6.539,0,0,1-6.362-6.669,6.539,6.539,0,0,1,6.362-6.669,6.539,6.539,0,0,1,6.362,6.669A6.539,6.539,0,0,1,16.25,24.052Zm0-10.669a4,4,0,0,0,0,8,4,4,0,0,0,0-8Z" transform="translate(-2.25 -7.383)" fill="#0b5cb8"/>
</svg>
